
<global>
amp_veltrack=0
ampeg_attack=0.01
ampeg_release=0.45
master-volume=9.0
xf_cccurve=gain
xfin_hicc1=127
xfout_hicc1=127
xfout_locc1=127
</global>

<group>
ampeg_attack=0.01
group_label=FF

<region>
hikey=A4
hivel=127
lokey=G#4
loop_end=277812
loop_mode=loop_continuous
loop_start=75023
loop_xfade=53556
lovel=0
offset=3896
pitch_keycenter=G#4
sample=SoloCello_sustain_FF_G#4.opus
</region>

<region>
hikey=A3
hivel=127
lokey=G#3
loop_end=275535
loop_mode=loop_continuous
loop_start=74408
loop_xfade=53117
lovel=0
offset=4029
pitch_keycenter=G#3
sample=SoloCello_sustain_FF_G#3.opus
</region>

<region>
hikey=A2
hivel=127
lokey=G#2
loop_end=278179
loop_mode=loop_continuous
loop_start=75122
loop_xfade=53627
lovel=0
offset=2853
pitch_keycenter=G#2
sample=SoloCello_sustain_FF_G#2.opus
</region>

<region>
hikey=G6
hivel=127
lokey=F#5
loop_end=277827
loop_mode=loop_continuous
loop_start=75027
loop_xfade=53559
lovel=0
offset=5528
pitch_keycenter=F#5
sample=SoloCello_sustain_FF_F#5.opus
</region>

<region>
hikey=G4
hivel=127
lokey=F#4
loop_end=277093
loop_mode=loop_continuous
loop_start=74829
loop_xfade=53417
lovel=0
offset=9424
pitch_keycenter=F#4
sample=SoloCello_sustain_FF_F#4.opus
</region>

<region>
hikey=G3
hivel=127
lokey=F#3
loop_end=275633
loop_mode=loop_continuous
loop_start=74435
loop_xfade=53136
lovel=0
offset=6922
pitch_keycenter=F#3
sample=SoloCello_sustain_FF_F#3.opus
</region>

<region>
hikey=G2
hivel=127
lokey=F#2
loop_end=273107
loop_mode=loop_continuous
loop_start=73753
loop_xfade=52649
lovel=0
offset=2022
pitch_keycenter=F#2
sample=SoloCello_sustain_FF_F#2.opus
</region>

<region>
hikey=F5
hivel=127
lokey=E5
loop_end=269126
loop_mode=loop_continuous
loop_start=72677
loop_xfade=51881
lovel=0
offset=6452
pitch_keycenter=E5
sample=SoloCello_sustain_FF_E5.opus
</region>

<region>
hikey=F4
hivel=127
lokey=E4
loop_end=277890
loop_mode=loop_continuous
loop_start=75044
loop_xfade=53571
lovel=0
offset=1539
pitch_keycenter=E4
sample=SoloCello_sustain_FF_E4.opus
</region>

<region>
hikey=F3
hivel=127
lokey=E3
loop_end=275500
loop_mode=loop_continuous
loop_start=74399
loop_xfade=53110
lovel=0
offset=6502
pitch_keycenter=E3
sample=SoloCello_sustain_FF_E3.opus
</region>

<region>
hikey=F2
hivel=127
lokey=E2
loop_end=273765
loop_mode=loop_continuous
loop_start=73930
loop_xfade=52776
lovel=0
offset=2648
pitch_keycenter=E2
sample=SoloCello_sustain_FF_E2.opus
</region>

<region>
hikey=D#5
hivel=127
lokey=D5
loop_end=270391
loop_mode=loop_continuous
loop_start=73019
loop_xfade=52125
lovel=0
offset=8432
pitch_keycenter=D5
sample=SoloCello_sustain_FF_D5.opus
</region>

<region>
hikey=D#4
hivel=127
lokey=D4
loop_end=273982
loop_mode=loop_continuous
loop_start=73989
loop_xfade=52817
lovel=0
offset=4379
pitch_keycenter=D4
sample=SoloCello_sustain_FF_D4.opus
</region>

<region>
hikey=D#3
hivel=127
lokey=D3
loop_end=283332
loop_mode=loop_continuous
loop_start=76514
loop_xfade=54620
lovel=0
offset=4548
pitch_keycenter=D3
sample=SoloCello_sustain_FF_D3.opus
</region>

<region>
hikey=D#2
hivel=127
lokey=D2
loop_end=282953
loop_mode=loop_continuous
loop_start=76411
loop_xfade=54547
lovel=0
offset=1190
pitch_keycenter=D2
sample=SoloCello_sustain_FF_D2.opus
</region>

<region>
hikey=C#5
hivel=127
lokey=C5
loop_end=273294
loop_mode=loop_continuous
loop_start=73803
loop_xfade=52685
lovel=0
offset=2077
pitch_keycenter=C5
sample=SoloCello_sustain_FF_C5.opus
</region>

<region>
hikey=C#4
hivel=127
lokey=C4
loop_end=284541
loop_mode=loop_continuous
loop_start=76840
loop_xfade=54853
lovel=0
offset=9333
sample=SoloCello_sustain_FF_C4.opus
</region>

<region>
hikey=C#3
hivel=127
lokey=C3
loop_end=282062
loop_mode=loop_continuous
loop_start=76171
loop_xfade=54375
lovel=0
offset=1752
pitch_keycenter=C3
sample=SoloCello_sustain_FF_C3.opus
</region>

<region>
hikey=C#2
hivel=127
lokey=C2
loop_end=272804
loop_mode=loop_continuous
loop_start=73671
loop_xfade=52590
lovel=0
offset=9093
pitch_keycenter=C2
sample=SoloCello_sustain_FF_C2.opus
</region>

<region>
hikey=B4
hivel=127
lokey=A#4
loop_end=273416
loop_mode=loop_continuous
loop_start=73836
loop_xfade=52708
lovel=0
offset=6839
pitch_keycenter=A#4
sample=SoloCello_sustain_FF_A#4.opus
</region>

<region>
hikey=B3
hivel=127
lokey=A#3
loop_end=278791
loop_mode=loop_continuous
loop_start=75288
loop_xfade=53744
lovel=0
offset=1979
pitch_keycenter=A#3
sample=SoloCello_sustain_FF_A#3.opus
</region>

<region>
hikey=B2
hivel=127
lokey=A#2
loop_end=276538
loop_mode=loop_continuous
loop_start=74679
loop_xfade=53310
lovel=0
offset=4385
pitch_keycenter=A#2
sample=SoloCello_sustain_FF_A#2.opus
</region>
</group>